<?xml version="1.0"?>
<svg width="375" height="193" xmlns="http://www.w3.org/2000/svg">
 <defs>
  <radialGradient gradientTransform="translate(201 -41) rotate(-0.367276) scale(312.006 409.113)" gradientUnits="userSpaceOnUse" r="1" cy="0" cx="0" id="paint0_radial">
   <stop stop-opacity="0.46" stop-color="#0570AC"/>
   <stop stop-opacity="0" stop-color="#081B23" offset="1"/>
  </radialGradient>
 </defs>
 <g>
  <title>background</title>
  <rect fill="none" id="canvas_background" height="402" width="582" y="-1" x="-1"/>
 </g>
 <g>
  <title>Layer 1</title>
  <rect id="svg_1" fill="url(#paint0_radial)" height="192" width="376"/>
  <path id="svg_2" fill="#01D277" d="m214.570999,115.141998c3.834,0 6.429001,-2.615997 6.429001,-6.481995l0,-42.177704c0,-3.8661 -2.595001,-6.4823 -6.429001,-6.4823l-53.141998,0c-3.834,0 -6.429001,2.616199 -6.429001,6.4823l0,52.5177l3.298004,-3.855003l0,-48.662697c0.002991,-1.741997 1.403,-3.1535 3.130997,-3.156399l53.141998,0c1.727997,0.002899 3.128006,1.414402 3.130997,3.156399l0,42.177704c-0.002991,1.741997 -1.403,3.153 -3.130997,3.155998l-48.25,0l-3.298004,3.325996l-0.020996,-0.027" clip-rule="evenodd" fill-rule="evenodd"/>
  <path id="svg_3" fill="#01D277" d="m171.139999,80l1.720001,0l0,-7.210899l2.139999,0l0,-1.789101l-6,0l0,1.789101l2.139999,0l0,7.210899z" clip-rule="evenodd" fill-rule="evenodd"/>
  <path id="svg_4" fill="#01D277" d="m181.283997,80l1.716003,0l0,-9l-1.716003,0l0,3.598999l-2.567993,0l0,-3.598999l-1.716003,0l0,9l1.716003,0l0,-3.601601l2.567993,0l0,3.601601z" clip-rule="evenodd" fill-rule="evenodd"/>
  <path id="svg_5" fill="#01D277" d="m190,78.197899l-3.259995,0l0,-1.7995l2.783997,0l0,-1.7994l-2.783997,0l0,-1.7995l3.112,0l0,-1.7995l-4.852005,0l0,9l5,0l0,-1.802101z" clip-rule="evenodd" fill-rule="evenodd"/>
  <path id="svg_6" fill="#01D277" d="m173.005997,86.892197l-3.444992,-3.892197l-0.561005,0l0,9l1.772003,0l0,-4.946899l2.233994,2.380196l2.235001,-2.380196l-0.009995,4.946899l1.768997,0l0,-9l-0.548996,0l-3.445007,3.892197z" clip-rule="evenodd" fill-rule="evenodd"/>
  <path id="svg_7" fill="#01D277" d="m183.5,83c-6,0 -6,9 0,9c6,0 6,-9 0,-9zm0,7.193497c-3.487,0 -3.487,-5.396996 0,-5.396996c3.487,0 3.487,5.396996 0,5.396996z" clip-rule="evenodd" fill-rule="evenodd"/>
  <rect id="svg_8" fill="#01D277" height="9" width="2" y="83" x="198"/>
  <path id="svg_9" fill="#01D277" d="m203.738007,90.199997l0,-1.799995l2.785995,0l0,-1.800003l-2.785995,0l0,-1.799995l3.113998,0l0,-1.800003l-4.852005,0l0,9l5,0l0,-1.800003l-3.261993,0z" clip-rule="evenodd" fill-rule="evenodd"/>
  <path id="svg_10" fill="#01D277" d="m169,95l2.615997,0c5.845001,0 5.845001,9 0,9l-2.615997,0l0,-9zm1.755997,7.199997l0.860001,0c3.414001,0 3.414001,-5.399994 0,-5.399994l-0.860001,0l0,5.399994z" clip-rule="evenodd" fill-rule="evenodd"/>
  <path id="svg_11" fill="#01D277" d="m183.102005,99.498703c0.544998,-0.388504 0.778,-1.092903 0.799988,-1.7715c0.03801,-1.585007 -0.922989,-2.727203 -2.463989,-2.727203l-3.438004,0l0,9l3.438004,0c0.685989,-0.004997 1.343002,-0.293999 1.822998,-0.801003c0.481003,-0.507996 0.746994,-1.191994 0.738998,-1.903c0.003006,-0.714996 -0.332993,-1.386597 -0.897995,-1.797295zm-3.353012,-2.703903l1.544006,0c0.458008,0.035904 0.811996,0.431 0.811996,0.906502c0,0.475502 -0.353989,0.870598 -0.811996,0.906502l-1.544006,0l0,-1.813004zm0,5.405197l1.544006,0l0,0.003006c0.231995,0.001999 0.457001,-0.092003 0.621002,-0.263c0.164001,-0.171005 0.255005,-0.403 0.251999,-0.644005c0.003006,-0.239998 -0.089005,-0.470001 -0.253006,-0.639c-0.164993,-0.167999 -0.388992,-0.259995 -0.619995,-0.253998l-1.544006,0l0,1.796997z" clip-rule="evenodd" fill-rule="evenodd"/>
  <path id="svg_12" fill="#01D277" d="m192.501007,87.757797l-2.399002,-4.757797l-2.102005,0l4.296997,9l0.408997,0l4.294006,-9l-2.102005,0l-2.396988,4.757797z" clip-rule="evenodd" fill-rule="evenodd"/>
  <rect id="svg_13" fill-opacity="0.83" fill="#01D277" transform="rotate(-45 279 30.5513)" rx="2" height="4" width="162" y="30.5513" x="279"/>
  <rect id="svg_14" fill-opacity="0.83" fill="#01D277" transform="rotate(-45 268 66.5513)" rx="2" height="4" width="162" y="66.5513" x="268"/>
  <rect id="svg_15" fill-opacity="0.83" fill="#01D277" transform="rotate(-45 241 189.551)" rx="2" height="4" width="162" y="189.551" x="241"/>
  <rect id="svg_16" fill-opacity="0.83" fill="#01D277" transform="rotate(-45 -8 183.551)" rx="2" height="4" width="162" y="183.551" x="-8"/>
  <rect id="svg_17" fill-opacity="0.83" fill="#01D277" transform="rotate(-45 104,50.551300048828125)" rx="2" height="4" width="162" y="48.5513" x="23"/>
  <rect id="svg_18" fill-opacity="0.83" fill="#01D277" transform="rotate(-45 104,23.551300048828125)" rx="2" height="4" width="162" y="21.5513" x="23"/>
 </g>
</svg>